<?xml version="1.0" standalone="no"?>
<!DOCTYPE svg PUBLIC "-//W3C//DTD SVG 20010904//EN"
 "http://www.w3.org/TR/2001/REC-SVG-20010904/DTD/svg10.dtd">
<svg version="1.0" xmlns="http://www.w3.org/2000/svg"
 width="500.000000pt" height="500.000000pt" viewBox="0 0 500.000000 500.000000"
 preserveAspectRatio="xMidYMid meet">
<g transform="translate(0.000000,500.000000) scale(0.100000,-0.100000)"
fill="#2563eb" stroke="none">
<path d="M2895 4102 c-32 -12 -96 -17 -320 -21 -245 -5 -284 -8 -308 -24 -37
-24 -125 -114 -298 -303 -81 -88 -238 -248 -349 -355 l-201 -194 43 -5 c60 -8
87 -25 106 -68 15 -33 17 -94 20 -513 3 -474 -1 -539 -33 -634 -4 -11 21 11
56 49 35 38 162 157 284 265 121 107 265 239 320 292 55 53 110 105 123 115
13 10 86 85 163 166 l139 147 0 112 c0 98 4 122 30 200 30 88 45 169 31 169
-4 0 -20 -21 -37 -47 -51 -82 -116 -103 -195 -63 -22 12 -44 31 -49 44 -14 37
8 101 54 153 51 60 372 410 440 481 52 54 48 62 -19 34z m-610 -72 c-3 -5 -12
-10 -18 -10 -7 0 -6 4 3 10 19 12 23 12 15 0z m25 -10 c0 -5 -5 -10 -11 -10
-5 0 -7 5 -4 10 3 6 8 10 11 10 2 0 4 -4 4 -10z m-50 -45 c0 -9 -6 -12 -16 -8
-13 5 -13 7 -2 14 17 11 18 11 18 -6z m115 -85 c3 -6 -1 -7 -9 -4 -18 7 -21
14 -7 14 6 0 13 -4 16 -10z m145 -143 c0 -2 -57 -55 -127 -118 -70 -63 -161
-145 -203 -184 -162 -150 -262 -240 -272 -244 -14 -5 -4 373 11 421 33 104
103 127 394 127 108 1 197 0 197 -2z m-242 -429 c49 -47 52 -62 52 -301 l0
-223 -171 -160 c-94 -87 -188 -173 -208 -191 l-36 -32 -3 342 c-1 229 1 351 9
368 12 31 207 209 246 225 33 14 77 3 111 -28z"/>
<path d="M2097 3725 c-87 -18 -127 -41 -145 -85 l-14 -35 29 27 c48 45 119 59
315 65 156 5 179 8 194 24 17 18 13 19 -147 18 -94 0 -193 -7 -232 -14z"/>
<path d="M2128 3303 c-189 -166 -208 -188 -207 -238 l1 -30 8 33 c4 19 12 37
16 42 75 68 205 174 223 181 33 13 75 2 111 -28 35 -29 39 -18 9 21 -24 30
-69 56 -98 56 -12 0 -40 -17 -63 -37z"/>
<path d="M2725 3843 c-220 -239 -295 -329 -295 -358 0 -4 18 16 41 45 22 28
84 97 138 153 275 286 404 437 377 437 -3 0 -120 -125 -261 -277z"/>
<path d="M3259 3382 c-280 -198 -613 -487 -928 -805 l-103 -105 40 -7 c52 -8
88 -42 102 -94 7 -29 10 -186 8 -504 -3 -459 -3 -462 -26 -512 -26 -55 -41
-145 -25 -145 6 0 24 23 41 50 36 58 86 85 139 77 45 -8 91 -43 100 -75 9 -36
-37 -120 -107 -196 -64 -69 -50 -68 52 6 208 150 452 352 668 553 117 109 360
346 360 352 0 1 -10 3 -22 3 -41 0 -105 39 -119 73 -11 25 -14 130 -14 507 l0
475 28 67 c19 47 27 81 25 110 l-3 42 -32 -52 c-55 -88 -117 -111 -194 -72
-90 46 -72 120 61 256 29 30 51 56 49 59 -3 2 -48 -26 -100 -63z m-229 -303
c39 -24 56 -43 71 -79 18 -42 9 -1319 -9 -1400 -8 -36 -22 -55 -69 -98 -149
-135 -164 -146 -199 -146 -37 0 -76 24 -108 68 -21 27 -21 34 -18 694 2 367 8
690 13 717 8 47 15 57 121 157 123 118 137 124 198 87z"/>
<path d="M2872 3011 c-109 -99 -147 -139 -139 -147 4 -4 36 20 73 52 138 122
156 135 178 128 51 -16 65 -24 90 -56 l27 -33 -11 30 c-15 40 -48 75 -87 91
-18 8 -35 14 -38 14 -3 0 -45 -35 -93 -79z"/>
<path d="M3323 3383 c-64 -73 -115 -144 -108 -151 2 -3 17 11 32 29 15 19 54
62 86 96 31 34 57 69 57 78 0 8 -2 15 -4 15 -2 0 -31 -30 -63 -67z"/>
<path d="M1400 3183 c1 -19 18 -30 59 -37 24 -4 56 -13 72 -22 33 -17 35 -13
13 21 -16 25 -68 45 -116 45 -16 0 -28 -3 -28 -7z"/>
<path d="M2508 2863 c-201 -206 -379 -376 -598 -569 -191 -169 -247 -223 -342
-333 -36 -40 -46 -61 -31 -61 3 0 49 45 101 101 53 55 157 153 231 217 123
105 238 216 629 605 117 116 149 153 139 163 -2 2 -60 -53 -129 -123z"/>
<path d="M2210 2436 c0 -9 19 -18 52 -26 29 -6 63 -20 75 -32 26 -24 28 -21
11 17 -7 15 -24 33 -39 41 -37 19 -99 19 -99 0z"/>
<path d="M3418 1795 c-347 -339 -821 -734 -965 -803 -19 -9 -33 -23 -33 -34 0
-10 3 -18 6 -18 33 0 330 223 563 423 173 148 596 549 605 573 18 46 -1 31
-176 -141z"/>
<path d="M2412 1292 c-16 -15 -39 -46 -51 -69 -11 -23 -25 -44 -31 -48 -12 -7
-13 -35 -2 -35 5 0 21 22 36 50 15 27 40 58 55 70 38 26 105 26 149 0 41 -25
42 -7 1 31 -44 41 -114 41 -157 1z"/>
</g>
</svg>